<?xml version="1.0" encoding="UTF-8"?>
<!-- Generator: Adobe Illustrator 19.0.0, SVG Export Plug-In . SVG Version: 6.00 Build 0)  -->
<svg version="1.1" id="mountains_1_" xmlns="http://www.w3.org/2000/svg" xmlns:xlink="http://www.w3.org/1999/xlink" x="0px" y="0px" viewBox="0 0 1382.2 786.4" style="enable-background:new 0 0 1382.2 786.4;" xml:space="preserve">
<style type="text/css">
	.st0{opacity:0.25;}
	.st1{fill:url(#fon_1_);}
	.st2{fill:url(#SVGID_1_);}
	.st3{fill:url(#SVGID_2_);}
	.st4{fill:url(#SVGID_3_);}
	.st5{fill:url(#SVGID_4_);}
	.st6{fill:url(#SVGID_5_);}
	.st7{fill:#052B43;}
	.st8{fill:#183C4C;}
	.st9{fill-rule:evenodd;clip-rule:evenodd;fill:#133445;}
	.st10{fill-rule:evenodd;clip-rule:evenodd;fill:#063444;}
</style>
<g id="landskape" class="st0">
	<linearGradient id="fon_1_" gradientUnits="userSpaceOnUse" x1="684.1366" y1="-271.0263" x2="691.092" y2="393.2517">
		<stop offset="0" style="stop-color:#89ADB7"/>
		<stop offset="1" style="stop-color:#FFFFFF"/>
	</linearGradient>
	<rect id="fon" y="0" class="st1" width="1382.2" height="786.4"/>
	<g id="mountains">
		<linearGradient id="SVGID_1_" gradientUnits="userSpaceOnUse" x1="682.0972" y1="101.2446" x2="689.9812" y2="308.2021">
			<stop offset="0" style="stop-color:#6C94A9"/>
			<stop offset="0.1892" style="stop-color:#7298AC"/>
			<stop offset="0.4321" style="stop-color:#82A4B4"/>
			<stop offset="0.7043" style="stop-color:#9CB7C1"/>
			<stop offset="0.996" style="stop-color:#C0D2D4"/>
			<stop offset="1" style="stop-color:#C1D2D4"/>
		</linearGradient>
		<path class="st2" d="M1306.3,213.7c-31.6-4.8-30.2-20.5-83.4-25.3c-53.2-4.8-63.3-4.8-89.2-4.8c-25.9,0-77.7,37.3-96.4,39.7    c-18.7,2.4-17.3,22.9-64.7,12c-47.5-10.8-96.4-22.9-103.5-22.9c-7.2,0-20.1,10.8-53.2,10.8c-33.1,0-14.4-15.6-50.3-22.9    c-36-7.2-31.6-22.9-63.3-14.4c-31.6,8.4-30.2,7.2-69,4.8c-38.8-2.4-46-12-94.9,3.6c-48.9,15.6-57.5,20.5-96.4,10.8    c-38.8-9.6-12.9-16.8-79.1-18c-66.2-1.2-94.9,12-130.9,12c-36,0-79.1,32.5-92,32.5s-51.8,3.6-66.2,3.6c-14.4,0,20.1-4.8-41.7-9.6    c-11.7-0.9-22.4-2.9-32.1-5.2v254.1l1382.2,16.9V200C1351.8,212.8,1331.9,217.6,1306.3,213.7z"/>
		<linearGradient id="SVGID_2_" gradientUnits="userSpaceOnUse" x1="689.0784" y1="122.6404" x2="691.0496" y2="394.6423">
			<stop offset="0" style="stop-color:#2C5A79"/>
			<stop offset="1" style="stop-color:#7EA3B3"/>
		</linearGradient>
		<path class="st3" d="M1380.5,269.8c-7.4-2.8-55.2-22.2-70.1-22.2c-14.9,0-30.3-3.7-34-3.7c-3.7,0-28.1-5.1-34.5-5.1    c-6.4,0-18.1,3.7-26.5,4.2c-8.5,0.5-17,2.8-25,2.8c-8,0-22.8-3.7-34-6.9c-11.2-3.2-40.4-15.2-47.8-16.6    c-7.4-1.4-30.3,0.9-34.5,0.9c-4.2,0-18.1-14.8-39.3-14.8c-21.2,0-58.4,2.3-70.6,4.6c-12.2,2.3-12.2,6.9-21.8,8.8    c-9.6,1.8-32.4,3.2-37.7,7.9c-5.3,4.6-8,11.5-16.5,10.2c-8.5-1.4-20.2-7.9-38.2-4.2c-18.1,3.7-4.2,5.3-28.1,8.8    c-23.9,3.5-50.2,6.9-66.9,8.3c-16.7,1.4-21.5-6.9-47.8-6.2c-26.3,0.7-9.6,9-38.2,4.2c-28.7-4.8-49.4-27.7-72.5-27.7    s-35,12.5-57.3,18.7c-22.3,6.2-35.8,4.8-45.4,11.1c-9.6,6.2-27.1,9.7-33.5,9.7s-32.7-17.3-45.4-17.3c-12.7,0-52.3,40.4-66.6,41.3    c-14.3,0.9-21.8,7.9-41.4,7.9c-19.6,0-55.2,6.9-58.4,10.6c-3.2,3.7-20.2,15.7-32.4,17.1c-12.2,1.4-15.4,6.5-34,7.4    c-18.6,0.9-32.4-0.9-39.3,3.7c-6.9,4.6-23.9,18.9-32.4,20.8c-8.5,1.8-23.9,19.9-45.7,24c-21.8,4.2-21.8,10.6-37.2,16.6    c-7,2.7-17.5,7.4-27.5,13.2v122.7l1382.2,5.8V270.6C1381.5,270.2,1380.9,269.9,1380.5,269.8z"/>
		<linearGradient id="SVGID_3_" gradientUnits="userSpaceOnUse" x1="691.0917" y1="261.6027" x2="691.0917" y2="541.5977">
			<stop offset="0" style="stop-color:#245173"/>
			<stop offset="0.192" style="stop-color:#2A5677"/>
			<stop offset="0.4384" style="stop-color:#3A6683"/>
			<stop offset="0.7146" style="stop-color:#548096"/>
			<stop offset="1" style="stop-color:#77A2B0"/>
		</linearGradient>
		<path class="st4" d="M1282.8,504.3c-65.7-15.8-67-28.9-116.9-39.4c-49.9-10.5-102.5-7.9-168.2-2.6C932,467.5,903,422.4,858.4,407    c-45.6-15.6-151.1-53.9-187.9-44.7c-35,8.7-113-30.2-169.5-52.6c-56.5-22.3-115.6-2.6-152.4,10.5C311.7,333.5,229,340,202.7,344    c-26.3,3.9-127.5-34.2-161.6-26.3c-14.8,3.4-29.3,11.3-41.1,19v313.2l1382.2-14.2V525.5C1366.8,518.3,1331.3,515.9,1282.8,504.3z"/>
		<linearGradient id="SVGID_4_" gradientUnits="userSpaceOnUse" x1="687.2734" y1="352.801" x2="689.2446" y2="551.875">
			<stop offset="0" style="stop-color:#0D3958"/>
			<stop offset="1" style="stop-color:#6A8F9E"/>
		</linearGradient>
		<path class="st5" d="M1320,587.8c-40.2-18.8-157.4-15-183.7-26s-64.6-30.8-107-42.8c-42.4-12-74.1-22.2-108-26.8    c-33.9-4.5-102.4-29.8-116.7-31.9c-14.3-2.1-75.9,5.4-75.9,5.4s-33.6-9.1-44.3-9.9c-10.8-0.7-71.9-1.3-109.7-1.5    c-37.8-0.2-73.6-2.6-82.4-6.6c-8.7-4-67-20.6-86.7-23c-19.6-2.5-48.2-5.5-75.1-7.3c-26.9-1.8-65.7,13-85.4,11.6    c-19.7-1.3-47.1,17.9-55.1,16.5c-8-1.4-36.8-14.5-54-20.9c-17.1-6.3-47-3.1-63.3-2.5c-16.2,0.7-32.1-3.9-38.6-8.6    c-4.3-3.2-21.5-6.1-34.3-7.5v287.2l67.3,4.2c0,0,775.1,54.9,1279.2,88.9h23.3l10.8-163.1C1361.1,610.5,1340.7,597.5,1320,587.8z"/>
		<linearGradient id="SVGID_5_" gradientUnits="userSpaceOnUse" x1="712.2755" y1="415.693" x2="718.1887" y2="648.276">
			<stop offset="0" style="stop-color:#123245"/>
			<stop offset="1" style="stop-color:#4B7588"/>
		</linearGradient>
		<path class="st6" d="M1320.4,671.1c-30.8-2.9-67.1-31.3-71.6-35.7c-4.5-4.4-69.8-21.9-90.6-21.9c-20.8,0-47.1-14.6-58-17.5    c-10.9-2.9-41.7-12.4-60.7-13.1c-19-0.7-60.7,0-86.1-0.7c-25.4-0.7-55.3-8-69.8-12.4c-14.5-4.4-37.2-8-50.7-12.4    c-13.6-4.4-31.7-5.1-62.5-4.4c-30.8,0.7-25.4,5.8-39,6.6c-13.6,0.7-18.1-5.8-32.6-10.9c-14.5-5.1-25.4-3.6-46.2-2.2    c-20.8,1.5-21.7,8.7-41.7,16c-19.9,7.3-23.6,0-48-2.9c-24.5-2.9-48.9,5.1-68,11.7c-19,6.6-47.1-1.5-74.3-2.9    c-27.2-1.5-95.2-2.2-120.6-3.6c-25.4-1.5-198.1,35.8-210.4,62.4c-20.5,44.5,194.1,130,194.1,130l1066.6-4.4    C1350.3,752.7,1351.3,674,1320.4,671.1z"/>
		<path class="st7" d="M812.2,603.8c0.3-0.8,0-1.6-0.6-2.1C811.8,602.4,812,603.1,812.2,603.8z"/>
		<path class="st7" d="M584.7,632.6c0-0.2,0-0.3,0-0.5C584.7,632.3,584.7,632.5,584.7,632.6z"/>
	</g>
	<g id="forest">
		<path class="st8" d="M1382.2,583.9c-2.1-0.4-4.2-0.6-6.4-0.5c-1.5,1.7,1.7,3.8,1.7,6c0,1.5-1.9,2.7-3.5,2.4    c-1.7-0.3-2.8-1.9-2.7-3.4c0-1.2,0.7-2.3,0.7-3.5c0-1.2-1-2.6-2.3-2.3c0.6,2.4-0.4,5-2.5,6.5c-0.8-3.4-3.6-6.4-7.3-7.6    c0,1.7-0.1,3.4-0.1,5c-3.4,1.1-5.1,5.3-3.2,8c-1.6-0.7-2.3-2.4-2.9-3.9c-0.5-1.5-1-3.2-2.5-4.2c-1.4-1-4-0.5-4.2,1.1    c-1.9-1.2-3.2-3.1-3.7-5.2c-1.8,0.3-3.7,0.7-5.5,1c-0.3-2-0.6-4.2-2.2-5.5c-1.6-1.4-4.9-1-5.3,0.9c-0.4-2.3-1.2-4.4-2.6-6.4    c-1.1,0.3-2.1,0.9-2.8,1.7c0.9-1.6-0.5-3.6-2.3-4.2c-1.9-0.6-3.9-0.2-5.8,0.2c-1,3.1-2,6.1-3,9.2c-1.6-0.9-3.6-1.4-5.5-1.4    c0.2,3.5-2.3,7-5.9,8.3c-1.6-1.2-2.6-3.1-2.6-5c-0.9,0-1.9-0.1-2.8-0.1c-1.4,2.9-2.7,5.7-4.1,8.6c-0.6,1.3-1.3,2.7-1.9,4    c-1.4-0.8-1.1-2.7-1-4.1c0.1-1.5-0.8-3.5-2.4-3.1c0.6-3.2,0.3-7.7-3.2-8.1c-1.7,2.5-2.4,5.6-2,8.5c-1.1,0.2-2.3,0.5-3.4,0.7    c0.5,2.6,1.1,5.2,1.6,7.8c-1.3,0-2.7,0-4,0c-0.3,1-0.6,2.1-0.9,3.1c-0.6-1.5-1.2-3.1-1.8-4.6c-0.9-0.2-2,0-2.7,0.5    c-0.2-0.9-0.4-1.7-0.5-2.6c-3.9,2-3.8,8.9-8.3,8.9c-0.9-1.5-2.8-1.4-4.4-0.4c-1.6,0.9-3.4,2.2-5.2,1.7c-3.2-0.9-2.3-5.8-5.2-7.4    c-1.3,2-2.2,4.1-2.7,6.4c-1.9-1.2-3.2-3-3.8-5.1c-0.3-1.4-0.7-3.2-2.2-3.5c-1.3-0.2-2.4,1.1-2.5,2.3c-0.1,1.2,0.4,2.4,0.3,3.6    s-0.9,2.6-2.3,2.6c1.2,2,1.2,4.5-0.1,6.5c-1.4-1.6-4-3.4-5.6-1.9c-0.2-2-0.4-3.9-0.7-5.9c0-0.3-0.1-0.6-0.3-0.8    c-0.7-0.6-1.6,0.5-1.7,1.3c-0.4,2.2-0.2,4.6-1.7,6.3c-1.2,1.4-3.6,2.8-2.6,4.3c-0.6-1.3-1.2-2.6-1.8-3.9c-1.7-0.2-2.9,1.6-3.3,3.2    c-0.5,1.5-1.2,3.4-2.9,3.6c-1.6,0.2-2.8-1.3-3.5-2.7c-1.5-3-2.4-6.2-2.6-9.4c-1.1,0.2-2,1.3-1.9,2.3c-1-1.4-1.5-3-1.4-4.7    c-1.8,0-3-1.7-3.6-3.3c-0.6-1.6-1-3.4-2.6-4.2c-0.5,2.4-0.6,4.8-0.6,7.2c-1,0-2-0.2-2.8-0.8c-0.1,1.1-0.1,2.2-0.2,3.2    c-0.6,0.1-1.3,0.2-1.9,0.2c0,2.8,0,5.7,0,8.5c-1.7,0.2-2.8-1.5-3.3-3c-0.5-1.5-1.1-3.3-2.7-3.6c-0.4,2.7-1.6,5.2-3.4,7.4    c-0.1-0.9-0.2-1.8-0.3-2.7c-2.1-0.2-4.1-0.1-6.1,0.4c2.2,2.2-3.9,5.6-2.1,8c-2.2-3.2-3.7-6.8-4.7-10.4c-0.9-0.4-1.9-0.5-2.8-0.3    c-0.5,1-0.9,2-1.4,2.9c-0.9-2.2-1.8-4.3-2.7-6.5c-0.2-0.4-0.4-0.8-0.8-1c-0.4-0.2-1.1,0.1-1,0.5c-0.2-1.4-0.4-2.7-0.7-4.1    c-0.1-0.4-0.2-0.9-0.5-1.1c-0.3-0.2-0.7,0-0.8,0.2c0,0.1,0,0.2,0,0.3c0-0.1,0-0.2,0-0.3c0.3-1.8,0.3-3.6,0.1-5.4    c-1.2-0.7-2.9,0.5-3.2,1.8c-0.3,1.3,0.1,2.7-0.1,4c-0.4,2.7-3.4,5.5-1.5,7.6c-2.2,0.1-3.9,2-4.3,4c-0.4,2,0.2,4,0.8,5.9    c-1-0.8-1.9-1.7-2.6-2.7c-3-4.5-1.7-10.8-5.2-14.9c-0.2-0.3-0.5-0.6-0.9-0.7c-0.5-0.2-1,0-1.5,0.2c-3.5,1.5-5.5,5.3-4.6,8.7    c-1.1-0.4-2.1-0.9-2.9-1.6c-1.2,2.4-1.4,5.2-0.5,7.8c-1.5-1.2-3.9-0.3-4.9,1.2c-1,1.5-0.9,3.4-0.8,5.1c-1.6-1.9-3.5-3.9-6.1-4    c-0.2-1.9-0.5-3.7-0.7-5.6c-0.1-1.1-0.7-2.6-1.9-2.5c0-1.1,0-2.2,0-3.3c-3,0.1-5.2,3.5-3.8,5.9c-0.1,0.8-0.4,1.2-0.5,2    c-1-0.2-1.8-0.7-2.5-1.4c-0.2,2.7-1.1,5.3-2.5,7.7c-3.4-1.8-5.3-5.8-3.9-9.1c-1.4-0.1-3.1-0.1-3.9,1c-0.4-2.9-1.7-5.6-3.7-7.9    c-0.2,1.8-0.4,3.7-1.3,5.4c-0.9,1.6-2.8,3-4.8,2.8c0.8-1.5-0.3-3.6-2-4c0,1.8,0,3.6,0,5.4c-2.5-0.2-4.7,2.6-3.6,4.7    c-2.2-2.2-3.5-5.2-3.4-8.2c-2.2,0.9-1.3,3.8-1.5,6c0,0.5-0.2,1-0.6,1.3c-0.3,0.2-0.7,0.3-1,0.3c-2.3,0.1-4.5-1.3-5.2-3.2    c-0.5-1.3-0.5-3.1-1.8-3.8c-0.6,1.7-0.9,3.6-0.9,5.4c-0.6-0.4-1.5-0.5-2.1,0c-0.1,0.8-0.2,1.7-0.2,2.5c-1.8-0.7-2.9-2.8-2.2-4.5    c-1.8-0.1-3.6,0.8-4.3,2.3c0.1-1.9,0.1-3.8,0.2-5.8c-0.8-0.4-1.9-0.2-2.6,0.3c0.1-1.3,0.1-2.6,0.2-3.8c-1.1-1.1-1.3-2.7-0.6-4    c-0.9-0.8-1.7-1.7-2.6-2.5c0,2.3,0,4.6,0,7c-0.9-0.4-2-0.4-3-0.2c0.3,1.4,0.6,3.1-0.5,4.1c-0.4,0.3-0.8,0.6-1.2,0.9    c-1.3,1.2-0.7,3.3,0.1,4.9c-2.6-1.6-5.3-3.5-5.9-6.3c-0.2-0.9-0.1-1.8-0.4-2.6c-0.3-0.8-1-1.7-2-1.7c0,2.8-0.1,5.6-0.1,8.4    c-1.6-0.5-3.1-1.1-4.7-1.6c-0.2,1.6-0.8,3.1-1.8,4.3c-0.3-0.9-0.3-1.9-0.5-2.8c-0.2-0.9-0.8-1.9-1.8-2.2c-1-0.3-2.3,0.4-2.1,1.4    c0-2.1-0.1-4.2-0.1-6.2c-0.5,2.2-1.1,4.5-1.6,6.7c-0.4,1.7-1.7,4-3.6,3.4c1,4,0.7,8.3-1.1,12c-1.3-1.6-2.3-3.4-3-5.2    c-1.6,0.3-2.9,1.4-3.3,2.8c0-2.2-1.3-4.3-3.2-5.6c1.1-1.4,0.4-3.7-1.4-4.2c-1.1-0.3-2.3,0.4-2.8,1.3c0,0.6,0,1.2-0.1,1.8    c-0.3-0.6-0.2-1.2,0.1-1.8c0-1.6-0.4-3.1-1.8-4c-0.5-0.3-1-0.4-1.4-0.8c-0.8-0.7-0.5-1.9-0.6-2.9c-0.2-1.8-1.6-3.5-3.5-4    c-1.8,3.1-2.8,6.6-2.8,10.1c0,0.4,0,0.8-0.2,1.2c-0.3,0.4-0.8,0.6-1.2,0.8c-1.3,0.8-1.9,2.5-1.4,3.9c-3.6-2.4,0-9.1-3.9-11    c-0.8,2.9-1.5,5.9-2.3,8.8c0-2-1.1-3.9-2.7-5.2c-0.5,0.9-0.8,1.9-0.7,2.9c-1.8,0.3-3-1.7-3.1-3.4c-0.1-1.6,0.2-3.5-1.1-4.7    c-1.9,2.5-2.6,5.7-2.1,8.6c-1.8,1-3.6,2-5.4,3c0.6-1.8-1.1-4.1-3.1-3.8c-0.1-1.2-0.1-2.4-0.2-3.6c-3.5,0.1-6.4,3.4-5.8,6.5    c-1.6,0.7-2.8-1.5-2.9-3.1c-0.1-1.6-0.9-3.9-2.6-3.5c0,1.7,0.1,3.4,0.1,5.2c-1.7,1.6-4.1,2.6-6.6,2.6c0.2-2.5-0.9-5.1-2.9-6.8    c-1.1,3.1-2.3,6.2-3.4,9.4c-0.6,1.6-2.3,3.6-3.8,2.7c-0.1,1.3-0.1,2.5-0.2,3.8c-2.2-0.6-4-2.3-4.6-4.3c-0.3-1-0.3-2-0.7-3    c-0.6-1.4-2-2.4-3.1-3.5c-1.1-1.1-1.8-2.8-1-4.1c-0.8-0.4-1.7-0.4-2.5-0.1c-0.5,1.2-0.9,2.4-1.4,3.7c-0.5-2.7-1.4-5.3-2.6-7.7    c-0.5,1-1,2-1.6,3c-1-0.7-1.8-1.7-2.4-2.8c-0.5,2.1-0.8,4.3-0.9,6.5c-1.8-2.6-3.7-5.2-5.5-7.7c-1.1,0.9-1.8,2.2-1.9,3.6    c-1.7-1.5-3-3.5-3.7-5.6c-1.3,1.6-2.7,3.2-4.7,4.1c-2,0.8-4.7,0.6-5.8-1.1c-0.8-1.2-0.6-2.7-1-4c-0.4-1.3-1.9-2.7-3.2-2.1    c-0.9,2-1.9,4-2.8,6.1c-0.1-1.3-0.2-2.6-0.9-3.6c-0.8-1-2.5-1.6-3.6-0.8c-0.4-1.7-0.7-3.5-1.1-5.2c-0.7,0.6-1.4,1.2-2.1,1.8    c0.2-2.4-0.6-5.8-3.3-5.7c-0.3-2.7-1.4-5.3-3-7.6c-1.7,2.6-2.4,5.9-1.8,8.9c-0.9,0.2-1.9,0.1-2.8-0.2c-0.2,1.6,0.4,3.2,1.5,4.3    c-1.5,0-2.7,1.3-3,2.7c-0.2,1.4,0.3,2.7,0.8,4.1c-1.1-1-3-0.1-3.5,1.2c-0.5,1.3-0.1,2.7,0,4c0.1,1.4-0.1,2.9-1.4,3.7    c-0.5-1.1-1-2.2-1.5-3.3c-0.7,0-1.4,0-2.1,0c0,2.6-1.5,5.2-4,6.6c-1.1-1.4-1.4-3.3-0.9-5c-1.9-0.1-3.3-2.3-2.3-3.8    c-2.4,0.1-4.6,1.5-5.4,3.6c-0.6-1.8-1.2-3.6-2.6-4.9c-1.4-1.3-3.9-1.9-5.5-0.8c-0.3-1.4-0.5-2.8-0.8-4.2c-0.9,0.1-1.8,0.4-2.5,0.8    c0.1-1.7,0.1-3.3,0.2-5c-1.5-0.8-3,1.1-3.1,2.6c0,1.5,0.6,3.2-0.1,4.5c-0.9,1.7-3.6,2.3-4,4.2c-0.4,2.1,2.6,4.5,1,6.1    c-2.8-0.2-5.3-2.1-6-4.5c-0.9-0.4-1.8-0.8-2.7-1.2c-0.4,0.5-0.9,1-1.3,1.5c-0.6-1.1-1.2-2.1-1.7-3.2c-0.6,0.3-1.3,0.7-1.9,1    c-0.3-0.7-1.1-1.2-1.9-1.3c0.3,1.1-0.6,2.3-1.8,2.5c-0.8-1.8-1.7-3.6-2.5-5.4c-0.9,0.9-2.3,1.2-3.6,1c-0.1-1.7-0.3-3.5-1.1-5    c-0.9-1.5-2.6-2.7-4.5-2.5c0.1,0.2,0.1,0.4,0.2,0.6c0.6,0.6,1,1.3,0.6,2.1c-0.2-0.7-0.4-1.4-0.6-2.1c-1-0.9-2.7-1.3-3.7-0.3    c-0.3,2.8-0.2,5.6,0.4,8.3c-2.3,1.1-3.3,4-2.2,6.1c-1.2-0.5-2.4-1.1-3.6-1.6c1.8,4.3,3.5,8.5,5.3,12.8c-2.3,0-4.4-1.6-5.5-3.5    c-1.1-1.9-1.4-4-1.7-6.1c-2,0.6-3.6,2.2-4.2,4c-1.7-1.1-3.1-2.5-4.1-4.2c-0.8,1.3-1.6,2.5-2.4,3.8c-1-0.6-2.4-0.7-3.5-0.3    c1.4-1.8-0.8-4-2.2-5.8c-1.2-1.6-1.7-3.6-1.5-5.5c-1.7,2-2.3,4.8-1.6,7.2c-1.1-0.4-2.4-0.4-3.5,0c0.2,1.8,0.5,3.6,0.7,5.4    c-1.4-0.3-3,0.9-2.8,2.2c-0.8-2.3-1.1-4.8-0.6-7.2c-0.6-0.5-1.7-0.5-2.2,0.1c0.9-2.4-0.8-5.3-3.5-5.8c-0.3-1.4-0.7-2.9-1-4.3    c-0.7,3-2.7,5.7-5.5,7.5c-1.2-0.4-2.1-1.5-2.3-2.7c-1.4-0.4-2.8,0.9-3.2,2.1c-0.4,1.3-0.3,2.7-0.9,3.9c-0.6,1.2-2.5,2-3.6,1.1    c0.2,1.3,0.3,2.6-0.2,3.8c-0.5,1.2-1.9,2.2-3.3,1.9c-1.2-1.8,0.4-4.6-1.3-6c-1.5-1.2-4.2,0.7-3.4,2.3c-2.1-3-4.3-5.9-6.4-8.9    c-0.8-1.1-1.6-2.2-2.8-2.9c-0.8-0.5-1.8-0.8-2.4-1.4c-1.9-1.8-0.6-5.3-2.9-6.6c-0.9,2-1.2,4.3-0.9,6.4c-1.1-0.9-2.5-1.4-3.9-1.7    c-0.6,1.5-0.9,3.2-0.8,4.9c-1.5,0.2-3,0.5-4.5,0.7c0.5,2.8,0.9,5.5,1.4,8.3c-1.6,0.1-3.1,0.2-4.7,0.4c0.2,2.2,0.5,4.5,0.7,6.7    c-1.6-0.1-3.2-0.2-4.8-0.4c-0.4-1.3-0.8-2.7-1.2-4c-1.5,0.1-2.9,1-3.4,2.3c-1.2-1.8-2.4-3.7-3.6-5.5c-0.4-0.6-0.8-1.3-1.5-1.6    c-0.6-0.3-1.3-0.4-2-0.6c-2.9-1.2-2.2-5.6-4.7-7.4c0.4,3.1-0.4,6.3-2.2,8.9c-1.8,1.9-2.5,4.6-1.7,7c-1,0-2,0-3,0    c0.2,1.7,0.3,3.4,0.5,5.1c-1.1,1.3-3.6,0.5-4.5-0.9c-0.9-1.5-0.7-3.2-0.9-4.9c-0.2-1.6-1-3.5-2.8-3.9c-0.4,2.6-0.6,5.3-0.6,7.9    c-1.4-1-3.6,0.1-4.1,1.6c-0.6,1.5-0.1,3.2,0.3,4.7c0.4,1.6,0.7,3.3-0.2,4.7c-1.5-5-4.2-9.7-7.9-13.7c-1.4,0.7-2.5,1.7-3.1,3    c-2.8-3.8-4.3-8.3-4.2-12.9c-1.4-0.3-2.8,0.7-3.2,2c-0.4,1.3-0.1,2.6,0.2,3.9c-1,0.2-2,0.4-3,0.5c0.3,2,0.6,3.9,0.8,5.9    c-3.2-2.7-5-6.7-4.7-10.6c-1.3-0.1-2.6-0.2-3.8-0.4c-0.9,5.7-1.3,11.4-1.1,17.1c-3.3,1-6.8-2.7-5.4-5.5c-1.2,0.1-2.5,0.1-3.7,0.2    c-0.1-1.6-0.2-3.1-0.3-4.7c-0.5,1.6-1.9,3-3.6,3.7c0.3-1.5,0.5-3.2-0.4-4.4c-0.9-1.3-3.5-1.4-4,0.1c-0.4-1.4-0.8-2.8-1.1-4.2    c-0.6-0.3-1.4-0.4-2.1-0.1c-0.2-1.7-0.6-3.4-1.4-4.9c-1.3,0.5-2.7,1-4,1.5c-0.6,2.5-0.8,5-0.7,7.5c-1.3-0.5-2.4-1.3-3.1-2.4    c0.2,2.1-0.8,4.2-2.6,5.5c0,1.4,0.1,3,0.1,4.4c-1.7,0.8-4.1-1.6-5.4-0.4c-0.3,0.3-0.5,0.7-0.5,1.1c-0.5,2.1,0.1,4.4,1.5,6.1    c-2.5-0.8-5.6,1.1-5.6,3.5c-0.7-1.3-1.4-2.5-2.1-3.8c-1.7-0.4-3.6-0.3-5.3,0.3c0.7-1.4-0.8-3-2.5-3.1c-1.6-0.1-3.2,0.8-4.3,1.9    c-0.7-1-0.8-2.1-1-3.2c-0.3-1.1-0.9-2.3-2-2.7c-1-0.4-2.3,0.3-2.4,1.2c0,0.2,0,0.3,0,0.5c0-0.2,0-0.3,0-0.5c-0.1-1-0.3-2-0.8-2.9    c-0.6-1-1.9-1.7-3.2-1.4c-1-2.2-1.6-4.4-2.1-6.7c-3.2,2-5.1,5.8-4.5,9.4c-1.3-0.3-2.8-0.3-4.1-0.1c-0.1,1.9-0.2,3.8-0.4,5.6    c-2.4-1-4.6-2.7-6.1-4.7c-1.1,1.3-1.8,2.8-2,4.3c-2.2-0.7-2.1-3.8-3.9-5.1c-0.5-0.4-1.2-0.6-1.7-0.9c-0.8-0.6-1.3-1.5-1.6-2.3    c-1.2-2.9-2.1-6-2.4-9.1c-1.4,0-2.7-0.1-4.1-0.1c1.2,4.1-1,8.8-5.1,10.8c-0.4,0.2-0.9,0.4-1.1,0.8c-0.3,0.6,0,1.3,0.3,1.9    c1,1.9,2,3.7,3,5.6c-1.9,0-3.7,0.1-5.6,0.1c-0.4,1.7-0.5,3.6-0.1,5.3c-3.4-0.2-4.6-4.2-7.6-5.7c-1.7-0.8-3.9-0.9-5-2.3    c-0.8-1-0.8-2.3-1.1-3.6c-0.3-1.2-1.3-2.6-2.6-2.4c-0.5,2.8-0.7,5.7-0.5,8.5c-1.5,0-3,0.2-4.5,0.5c-0.2,1.8,0,3.7,0.7,5.5    c-1.5,0.7-2.4,2.3-2.2,3.8c-0.9-0.9-1.8-1.9-2.7-2.8c1.1-1,2.2-2,3.3-2.9c-1.9,0-3.8-0.4-5.6-0.9c1-1.6,0.2-3.9-1.5-4.7    c0.1-1.4,0.3-2.7,0.4-4.1c-1.7-1-3.6,1.2-3.4,3c0.2,1.8,1.2,3.6,0.6,5.3c-0.6,1.6-2.6,3-1.9,4.5c-2-0.3-4.1,0-6,0.7    c0.7,1.7,1.4,3.5,2.1,5.2c-2-0.5-4.3,1.5-3.8,3.3c0.2,0.7,0.6,1.3,0.6,1.9c-0.1,1.8-3,1.8-4.7,2.7c-2.7,1.4-2.2,5-1.4,7.7    c-2.7-0.7-4.9-2.6-5.9-4.9c0.1,1.4-1.1,2.7-2.5,2.9c-1,0.1-2-0.2-3-0.2c-3,0-5.2,3.4-3.7,5.8c-2.8,0-5.6,0.9-7.8,2.3    c-3.9,13.9-16.4,24.6-30.7,30.8c5.7,8.1-3.2,18.4-12.3,23.2c-9.2,4.9-20.5,9.4-22.8,18.9c-1.8,7.6,3.4,14.9,8.7,21    c6.5,7.3,13.7,14.1,21.4,20.5h948.5V583.9z"/>
		<path class="st9" d="M693.8,757.7c0.4,0.1,0.6,0.2,0.8,0.3c-0.5-0.2-1.6-0.6-2.8-1.1C691.2,756.7,691.5,756.9,693.8,757.7z"/>
		<path class="st9" d="M659.8,742.8C659.3,743.2,659.9,743,659.8,742.8L659.8,742.8z"/>
		<path class="st10" d="M779.7,765.8c-1,2.1-1,1.5-1.6,0.6c-0.6-0.8-1.3-2.6-1.9-3.9c-0.6-1.3-0.3-3.4-1.5-4.7    c-1.1-1.3-1.5,0.3-3.1,2.7c-1.6,2.4-2.1,4.8-3.1,7.1c-1,2.3-0.5,1.5-1.6,1.3c-1.1-0.2-1.3-2.1-2.3-1.3c-1,0.8-1.5-4.5-2.9-2.9    c-1.5,1.6-1.9,2.1-2.7-0.6c-0.8-2.7,0.3-6-1.5-4.7c-1.8,1.3-2.3-1.6-4-1.5c-1.8,0.2-1.5-1-3.9,1.9c-2.4,2.9-2.4,3.7-3.1,4.8    c-0.6,1.1-1.5-0.5-2.4-3.4c-1-2.9-1.1-7.1-1.8-5c-0.6,2.1-2.4,3.9-2.4,3.9s-1.5-0.6-2.4-0.2c-1,0.5-1.5-3.5-2.6-2.7    c-1.1,0.8-2.3-1.5-2.3-1.5s-6,6.6-6.5,3.2c-0.5-3.4,0.8-3.5-1.9-2.3c-2.7,1.3-4.8,6.1-4.8,6.1s-0.8,4.4-3.2,0.5    c-2.4-3.9-1.3-5.8-2.7-4.7c-1.5,1.1-2.6,0-2.7-2.3c-0.2-2.3-0.5-2.9-0.6-4.5c-0.2-1.6-0.6-2.6-1.3-4c-0.6-1.5-0.5-5.5-2.1-2.1    c-1.6,3.4-2.7,5.5-3.4,6.3c-0.6,0.8-1.3,0.3-2.4,1.8c-1.1,1.5-1.1,4-1.9,4.5c-0.8,0.5-0.3,0.6-2.6-0.3c-1.3-0.6-3.7-1.2-4.6-1.3    c1.2,0.5,2.3,0.9,2.8,1.1c0.6,0.2,0.5,0.2,0,0c-0.2-0.1-0.5-0.2-0.8-0.3c-2.4-0.8-2.6-1-2-0.9c-3.3-1.4-8-3.9-8.9-6.5    c-1.5-4.9-0.5-6.4-2-5.1c-1.5,1.3-0.5,4.6-1.8,1.3c-1.3-3.3-1-2.6-1.5-4.3c-0.5-1.8-1.3-3.3-1.3-3.3s-0.3-4.9-2-2.3    c-1.8,2.6-3.3,3.3-3.3,3.3s-0.8,4.6-1,3.3c-0.3-1.3-1.3-4.1-2.8-3.1c-1.5,1-2.8,1.5-2.8,1.5s-3.1,0-4.4,1    c-0.1,0.1-0.1,0.1-0.2,0.1c0.2,0.2-0.5,0.4,0,0c-0.1-0.2-0.7-0.4-2.4-0.4c-4.4,0-5.1-2.8-6.7-3.3c-1.5-0.5-2.3-1.8-3.3-3.6    c-1-1.8-1.8-5.1-3.6-2.8c-1.8,2.3-1.3,1-2.3,3.3c-1,2.3,0.5,2.6-1.5,2.3c-2.1-0.3-2.6-5.6-4.1-3.8c-1.5,1.8,0.8,2.6-2,1    c-2.8-1.5-3.8-2.8-4.4-4.4c-0.5-1.5-2-3.6-2.3-5.4c-0.3-1.8,0.3-6.4-1-3.8c-1.3,2.6-3.3,7.7-3.3,7.7l-1,2.3c0,0-3.1-3.3-4.1-5.9    c-1-2.6-1.8-5.1-1.8-5.1l-3.8,7.9c0,0-0.5,0-2.3-2c-1.8-2-4.6-4.9-4.6-4.9s0.3-1.3,0.3-3.1c0-1.8-1.8-5.1-1.8-5.1    s-1.8-0.3-3.1-1.3c-1.3-1-3.1-2.6-3.1-2.6s-1,0.3-1.5,2c-0.5,1.8-0.3,1-1.8,2c-1.5,1-1.8,1.8-2.6,0c-0.8-1.8-1.3-1.8-1.5-3.1    c-0.3-1.3,0.8-5.6-1.8-3.1c-2.6,2.6-3.1,3.1-3.3,1.5c-0.3-1.5-0.8-2.6-1.5-4.3c-0.8-1.8-1-2.3-1-2.3l-5.9-3.7c0,0,0.9-3.7-2.6-0.9    c-3.4,2.9-4,2.9-4.9,4.3c-0.9,1.4-1.1,0.3-3.7-1.7c-2.6-2-2.3-5.2-4-3.4c-1.7,1.7-2.3,3.7-2.3,3.7l-1.1,4c0,0-0.6,2-2.9,1.4    c-2.3-0.6-2.9-1.4-2.9-1.4s0.6-2.9-0.3-4.6c-0.9-1.7-2-3.2-2-3.2l-3.5,4c0,0-0.6,1.7-3.2-2.6c-2.6-4.3-2.6-5.7-4-7.2    c-1.4-1.4-1.7-6.9-2.9-3.4c-1.2,3.4-2,6.9-2,6.9s1.7,0-1.2,1.4c-2.9,1.4-1.4,0-3.2,1.4c-1.7,1.4-2.9,2.3-2.9,2.3s-2,0.9-2.9-2.3    c-0.9-3.2-0.6-2-1.1-4.3c-0.6-2.3-1.2-4-1.2-4s0-6.9-1.4-6c-1.4,0.9-2.9,3.4-2.9,3.4l-2.3,2.3c0,0-1.4-2.3-3.2-4    c-1.7-1.7-3.7-4.3-3.7-4.3s-2.9-2.9-4-1.7c-1.2,1.1-1.7,0.3-2.6-3.2c-0.9-3.4-1.2-4.6-1.2-4.6s0-6.6-2-2c-2,4.6-1.7,6-2.3,7.5    c-0.6,1.4,0.3,3.7-2,1.1c-2.3-2.6-3.7-3.4-3.7-3.4l-8,3.4c-2.9-2.9-3.2-2.9-3.2-2.9s-0.9-2.3-2.6-1.7c-1.7,0.6-4-0.6-4-0.6    s-2.6-1.4-3.2-3.4c-0.6-2-0.6-6-1.7-4.3c-1.2,1.7-1.2,2.9-2,4.3c-0.9,1.4-1.7,2.3-1.7,2.3s-0.9,0.6-1.7-1.1    c-0.9-1.7-2.3-6.3-2.3-6.3s-0.6-4-1.7-1.7c-1.1,2.3-2.3,4.3-2.3,4.3l-2,0.9c0,0-0.3-2.3-0.6-3.7c-0.3-1.4-0.6-1.4-1.4-3.4    c-0.9-2-0.3-4.3-1.7-3.4c-1.4,0.9-3.2,2.6-3.2,2.6l-4,3.4c0,0-2,1.7-2.6-1.1c-0.6-2.9-2-5.2-2-5.2l-5.2,2.3c-2,1.4-2.6,2.3-4,0.9    c-1.4-1.4-2-2-2-2l-1.2-2.3l-0.9-1.7l-2.6,2l-2.3,3.2l-2.9,2l-1.7-0.9v-1.7c0,0-3.4,0-5.7,0.6c-2.3,0.6-3.7-0.9-3.7-0.9    s0.6-4.3-1.1-2.9c-1.7,1.4-3.5,3.2-3.5,3.2s-3.2,1.7-4.9,2c-1.7,0.3-0.6-1.2-4.3,0.6c-3.7,1.7-4.6,2.6-4.3,0.3    c0.3-2.3,1.4-2.3,0-4.3c-1.4-2-2.6-3.7-2.6-3.7s-0.6-2.6-1.7-1.1c-1.2,1.4-1.7,3.2-1.7,3.2s-0.9,1.4-2.6,0.3c-1.7-1.1-2-1.4-4-2.6    c-2-1.1-3.4-1.1-3.4-1.1l-3.4,0.6c0,0-2,1.4-4.3-0.6c-2.3-2-4.9-3.4-4.9-3.4s-2.9-0.6-4.3,0.6c-1.4,1.1,0.6,0.9-2.6,0    c-3.2-0.9-6-2.9-8-5.5c-2-2.6-2.9-4.9-4.3-2.9c-1.4,2-2.3,4.3-2.3,4.3l-2,0.9l-1.7-1.7c0,0-0.6-0.6-3.2,0.6    c-2.6,1.1-2,3.2-3.4,2.9c-1.4-0.3-0.9-0.9-2.6-2.3c-1.7-1.4-2-5.2-3.7-1.7c-1.7,3.4-1.7,3.4-1.7,3.4s-2.5-1.4-4.9,0.9    c-2.4,2.4-2.8,2-2.8,2l-2.4,1.6l-2,0.4c0,0-1.2-7.5-2.8-5.1c-1.6,2.4-2,3.1-2,3.1l-2,0.8l-2.4-3.1c0,0-1.2-3.1-2.4-5.5    c-1.2-2.4,0-10.6-2.4-5.9c-2.4,4.7-4.3,8.2-4.3,8.2s-1.2,3.9-3.1,2.4c-2-1.6-1.2-2-3.9-2c-2.8,0-2.8,0.8-3.5-1.2    c-0.8-2-3.1-3.1-3.1-3.1s-2-5.5-4.3-3.1c-2.4,2.4-2.4,2.4-4.3,5.1c-1.8,2.5-4.9,6-5.4,6.6c0.4,0.9-0.1,0.1-0.1,0.1    s0.1-0.1,0.1-0.1c-0.3-0.6-1.1-2.1-2.9-5.4c-4.3-7.9-3.1-15.3-6.3-11.4c-3.1,3.9-2.8,4.7-5.1,4.3c-2.4-0.4-2.8,0.8-4.7-1.2    c-2-2-4.7-5.1-7.1-6.3c-2.4-1.2-1.6-2.7-5.1-0.4c-3.5,2.4-3.9,3.1-5.9,1.6c-2-1.6-5.9-6.7-5.9-6.7l-2.4-3.9l-0.4-5.5l-3.1,3.5    l-0.8,2c0,0-0.4-0.8-2.8,0.4c-2.4,1.2-2,1.2-3.5-2c-1.6-3.1,0-8.6-2.8-3.5c-2.8,5.1-5.1,10.2-7.1,9.8c-2-0.4-5.1-1.2-5.1-3.1    c0-2,0.4-5.1-2.4-5.9c-2.8-0.8-6.7-2.7-6.7-2.7s2.4-6.7-1.2-3.9c-3.5,2.7-6.7,3.5-6.7,3.5l-2.4,2l-5.1,1.2    c-7.1-5.5-10.2-7.1-13.8-10.2c-3.5-3.1-7.1-5.1-7.1-5.1s0.8-1.6-2,0c-2.8,1.6-9.4,3.1-9.4,3.1s-0.4-3.9-5.1-1.6    c-4.7,2.4-7.9,5.1-7.9,5.1s0.8,1.2-2-1.6c-2.8-2.7-7.9-8.6-7.9-8.6s-2,2.4-3.9,4.3c-2,2-2.8,5.5-4.7,4.3c-2-1.2-4.7-5.5-6.7-6.7    c-2-1.2-5.1-6.7-6.3-4.3c-1.2,2.4-2.4,5.1-2.4,5.1l-1.6,4.3c0,0-2.8,0.8-5.9,1.2c-3.1,0.4-2.4-3.5-5.9-2.7    c-3.5,0.8-8.6,2.4-8.6,2.4s0.4-2.4-2.4,1.6c-2.8,3.9-9.4,10.2-9.4,10.2s0,3.5-3.1-2c-3.1-5.5-5.5-8.6-5.5-8.6s0.4-0.8-0.8-3.9    c-1.2-3.1-2.8-8.2-4.7-9.8c-2-1.6-4.7-4.3-5.9-1.2c-1.2,3.1,0,5.5-2,3.5c-2-2-4.3-4.3-7.1-4.7c-2.8-0.4-6.3-2.7-6.3-2.7    s-1.6,0.8-3.5,0.4c-2-0.4-3.1-5.1-5.9-5.5c-2.8-0.4-4.3-2-5.9,0c-1.5,1.9-1.2,0.6-2.9,1.1v203.8h780v-21.3    C779.9,765.3,779.8,765.5,779.7,765.8z"/>
	</g>
</g>
</svg>