<svg id="Layer_1" enable-background="new 0 0 256 256" height="512" viewBox="0 0 256 256" width="512" xmlns="http://www.w3.org/2000/svg"><path d="m225.525 93.167c.001-.104.008-.205.008-.309 0-24.485-19.849-44.333-44.333-44.333-1.824 0-3.618.123-5.385.337-7.043-20.882-26.774-35.924-50.032-35.924-29.163 0-52.804 23.641-52.804 52.804 0 .856.024 1.707.065 2.553-3.977-.96-8.126-1.482-12.399-1.482-29.075 0-52.645 23.57-52.645 52.645s23.57 52.646 52.646 52.646h145.508c23.111 0 41.846-18.735 41.846-41.846 0-16.12-9.119-30.101-22.475-37.091z" fill="#e0ebfc"/><path d="m206.154 174.104h-145.508c-30.132 0-54.646-24.514-54.646-54.646s24.514-54.646 54.646-54.646c3.452 0 6.917.332 10.334.989 0-.02 0-.04 0-.06 0-30.219 24.585-54.804 54.804-54.804 23 0 43.451 14.309 51.392 35.771 1.373-.122 2.721-.184 4.025-.184 25.253 0 45.853 20.308 46.325 45.45 13.894 7.763 22.474 22.321 22.474 38.284 0 24.177-19.669 43.846-43.846 43.846zm-145.508-105.291c-27.927 0-50.646 22.719-50.646 50.645s22.719 50.646 50.646 50.646h145.508c21.971 0 39.846-17.875 39.846-39.846 0-14.876-8.201-28.409-21.402-35.317-.666-.349-1.08-1.04-1.073-1.791l.005-.196c.002-23.438-18.988-42.428-42.331-42.428-1.67 0-3.353.105-5.145.322-.938.11-1.832-.447-2.135-1.346-6.973-20.674-26.318-34.563-48.137-34.563-28.013 0-50.804 22.79-50.804 50.804 0 .825.023 1.644.062 2.458.03.629-.238 1.235-.724 1.637-.485.4-1.132.548-1.743.402-3.921-.947-7.934-1.427-11.927-1.427z" fill="#3762cc"/><path d="m114.004 96.327h-5.325c-1.112-4.684-3.074-7.923-4.879-10.89-2.456-4.035-4.577-7.52-4.577-14.87s2.121-10.834 4.577-14.869c2.712-4.455 5.786-9.505 5.786-19.18 0-2.289-1.856-4.145-4.145-4.145s-4.145 1.856-4.145 4.145c0 7.35-2.121 10.835-4.577 14.87-2.712 4.455-5.786 9.505-5.786 19.179 0 9.675 3.074 14.725 5.786 19.18 1.296 2.128 2.494 4.109 3.341 6.579h-3.183c-1.523 0-2.526 1.436-1.871 2.679l8.563 16.25c.75 1.424 2.992 1.424 3.742 0l8.563-16.25c.656-1.243-.347-2.678-1.87-2.678z" fill="#a4c9ff"/><path d="m162.992 96.327h-5.325c-1.112-4.684-3.074-7.923-4.879-10.89-2.456-4.035-4.577-7.52-4.577-14.87s2.121-10.834 4.577-14.869c2.712-4.455 5.786-9.505 5.786-19.18 0-2.289-1.856-4.145-4.145-4.145s-4.145 1.856-4.145 4.145c0 7.35-2.121 10.835-4.577 14.87-2.712 4.455-5.786 9.505-5.786 19.179 0 9.675 3.074 14.725 5.786 19.18 1.296 2.128 2.494 4.109 3.341 6.579h-3.183c-1.523 0-2.526 1.436-1.871 2.679l8.564 16.25c.75 1.424 2.992 1.424 3.742 0l8.563-16.25c.655-1.243-.347-2.678-1.871-2.678z" fill="#a4c9ff"/><circle cx="128" cy="182.104" fill="#4671c6" r="60.958"/><circle cx="128" cy="180.236" fill="#f9cfcf" r="45.846"/><path d="m107.372 180.172c.015-4.862 1.727-9.328 4.565-12.851l-14.445-21.268c-9.389 8.388-15.318 20.572-15.337 34.119z" fill="#6bdddd"/><path d="m173.844 180.172c-.019-13.547-5.948-25.73-15.337-34.119l-14.445 21.268c2.839 3.523 4.55 7.989 4.565 12.851z" fill="#f9a7a7"/><path d="m128 245.062c-34.715 0-62.958-28.243-62.958-62.958s28.243-62.958 62.958-62.958 62.958 28.243 62.958 62.958-28.243 62.958-62.958 62.958zm0-121.916c-32.51 0-58.958 26.448-58.958 58.958s26.448 58.958 58.958 58.958 58.958-26.448 58.958-58.958-26.448-58.958-58.958-58.958z" fill="#3762cc"/><path d="m128 159.606c6.488 0 12.278 3.017 16.063 7.715l14.445-21.268c-8.111-7.246-18.801-11.662-30.507-11.662s-22.397 4.416-30.507 11.662l14.445 21.268c3.783-4.698 9.573-7.715 16.061-7.715z" fill="#ffea92"/><path d="m128 228.082c-26.382 0-47.846-21.464-47.846-47.846s21.464-47.846 47.846-47.846 47.846 21.464 47.846 47.846-21.464 47.846-47.846 47.846zm0-91.691c-24.177 0-43.846 19.669-43.846 43.846s19.669 43.846 43.846 43.846 43.846-19.669 43.846-43.846-19.669-43.846-43.846-43.846z" fill="#3762cc"/><path d="m173.844 182.172h-25.216c-1.102 0-1.997-.892-2-1.994-.013-4.259-1.439-8.271-4.123-11.603-3.568-4.43-8.855-6.97-14.505-6.97s-10.937 2.54-14.505 6.97c-2.684 3.331-4.109 7.344-4.123 11.603-.003 1.103-.898 1.994-2 1.994h-25.216c-.531 0-1.04-.211-1.415-.587s-.586-.885-.585-1.416c.019-13.559 5.853-26.537 16.004-35.607 8.785-7.849 20.093-12.171 31.84-12.171s23.055 4.322 31.84 12.171c10.152 9.07 15.985 22.049 16.004 35.607.001.531-.209 1.04-.585 1.416-.375.376-.884.587-1.415.587zm-23.312-4h21.263c-.557-11.691-5.817-22.762-14.621-30.628-8.051-7.192-18.412-11.153-29.175-11.153s-21.124 3.961-29.175 11.153c-8.804 7.866-14.064 18.937-14.621 30.628h21.263c.41-4.401 2.119-8.639 4.912-12.106 4.332-5.376 10.754-8.46 17.621-8.46s13.289 3.084 17.621 8.46c2.794 3.467 4.503 7.705 4.912 12.106z" fill="#3762cc"/><path d="m120.841 181.333c-.663 3.538 1.133 7.219 4.488 8.521.87.338 1.81.518 2.78.504 3.234-.045 5.98-2.109 7.035-4.988.447-1.22.474-2.556.228-3.832l-6.284-32.61c-.232-1.196-1.943-1.196-2.176 0z" fill="#4671c6"/></svg>