<svg height="512pt" viewBox="-42 0 512 512" width="512pt" xmlns="http://www.w3.org/2000/svg"><path d="m84.144531 38.53125c4.394531 19.445312 27.988281 27.109375 42.96875 13.960938 2.53125-2.222657 6.324219.53125 4.992188 3.625-7.878907 18.3125 6.703125 38.382812 26.554687 36.550781 3.355469-.308594 4.804688 4.144531 1.90625 5.867187-17.136718 10.1875-17.136718 34.996094 0 45.179688 2.898438 1.722656 1.449219 6.175781-1.90625 5.867187-19.851562-1.832031-34.433594 18.238281-26.554687 36.550781 1.332031 3.097657-2.460938 5.847657-4.992188 3.625-14.980469-13.148437-38.578125-5.480468-42.96875 13.960938-.742187 3.289062-5.425781 3.289062-6.167969 0-4.390624-19.445312-27.984374-27.109375-42.96875-13.960938-2.53125 2.222657-6.324218-.527343-4.992187-3.625 7.878906-18.3125-6.703125-38.382812-26.554687-36.550781-3.355469.308594-4.804688-4.144531-1.90625-5.867187 17.136718-10.183594 17.136718-34.992188 0-45.179688-2.894532-1.722656-1.449219-6.175781 1.90625-5.867187 19.851562 1.832031 34.433593-18.238281 26.554687-36.550781-1.332031-3.09375 2.460937-5.847657 4.992187-3.625 14.984376 13.148437 38.578126 5.484374 42.96875-13.960938.742188-3.289062 5.425782-3.289062 6.167969 0zm0 0" fill="#fd8f31"/><path d="m160.566406 143.714844c-17.136718-10.183594-17.136718-34.992188 0-45.179688 2.898438-1.71875 1.449219-6.175781-1.90625-5.863281-19.847656 1.832031-34.429687-18.242187-26.554687-36.554687 1.332031-3.09375-2.457031-5.847657-4.992188-3.625-14.980469 13.152343-38.574219 5.484374-42.96875-13.960938-.742187-3.289062-5.425781-3.289062-6.167969 0-1.625 7.191406-5.875 12.761719-11.34375 16.277344 19.398438 15.589844 31.824219 39.496094 31.824219 66.320312 0 26.820313-12.425781 50.730469-31.824219 66.320313 5.46875 3.511719 9.71875 9.085937 11.34375 16.273437.742188 3.289063 5.429688 3.289063 6.167969 0 4.394531-19.445312 27.988281-27.109375 42.96875-13.960937 2.535157 2.222656 6.324219-.527344 4.992188-3.625-7.875-18.3125 6.707031-38.382813 26.554687-36.550781 3.355469.308593 4.804688-4.148438 1.90625-5.871094zm0 0" fill="#ff7f1f"/><path d="m115.933594 121.125c0 19.261719-15.613282 34.871094-34.875 34.871094-19.257813 0-34.871094-15.609375-34.871094-34.871094 0-19.257812 15.613281-34.871094 34.871094-34.871094 19.261718 0 34.875 15.613282 34.875 34.871094zm0 0" fill="#fccf3f"/><path d="m334.011719 315.355469v-253.195313c0-34.332031-27.832031-62.160156-62.160157-62.160156-34.332031 0-62.160156 27.828125-62.160156 62.160156v253.195313c-27.8125 19.566406-45.984375 51.910156-45.984375 88.5 0 59.726562 48.417969 108.144531 108.144531 108.144531 59.726563 0 108.144532-48.417969 108.144532-108.144531 0-36.589844-18.175782-68.933594-45.984375-88.5zm0 0" fill="#d8d8d8"/><path d="m271.851562 476.582031c-41.183593 0-74.6875-33.507812-74.6875-74.6875 0-31.273437 19.433594-59.117187 48.59375-69.980469v-269.753906c0-14.390625 11.703126-26.09375 26.09375-26.09375 14.386719 0 26.09375 11.703125 26.09375 26.09375v269.753906c29.15625 10.859376 48.59375 38.703126 48.59375 69.976563 0 41.183594-33.503906 74.691406-74.6875 74.691406zm0 0" fill="#f3e8d7"/><path d="m245.757812 109.871094v222.042968c-29.160156 10.859376-48.59375 38.703126-48.59375 69.976563 0 41.183594 33.503907 74.6875 74.6875 74.6875 41.183594 0 74.6875-33.503906 74.6875-74.6875 0-31.273437-19.4375-59.117187-48.59375-69.976563v-222.042968zm0 0" fill="#fc4e51"/><g fill="#0d6e9a"><path d="m420.105469 180.21875h-44.824219c-4.269531 0-7.726562-3.460938-7.726562-7.726562 0-4.265626 3.457031-7.726563 7.726562-7.726563h44.824219c4.265625 0 7.726562 3.460937 7.726562 7.726563 0 4.265624-3.460937 7.726562-7.726562 7.726562zm0 0"/><path d="m395.632812 117.597656h-20.351562c-4.269531 0-7.726562-3.460937-7.726562-7.726562s3.457031-7.726563 7.726562-7.726563h20.351562c4.265626 0 7.726563 3.460938 7.726563 7.726563s-3.460937 7.726562-7.726563 7.726562zm0 0"/><path d="m402.84375 54.976562h-27.5625c-4.269531 0-7.726562-3.460937-7.726562-7.726562s3.457031-7.726562 7.726562-7.726562h27.5625c4.269531 0 7.726562 3.460937 7.726562 7.726562s-3.457031 7.726562-7.726562 7.726562zm0 0"/><path d="m402.84375 305.460938h-27.5625c-4.269531 0-7.726562-3.460938-7.726562-7.726563 0-4.269531 3.457031-7.726563 7.726562-7.726563h27.5625c4.269531 0 7.726562 3.457032 7.726562 7.726563 0 4.265625-3.457031 7.726563-7.726562 7.726563zm0 0"/><path d="m395.632812 242.839844h-20.351562c-4.269531 0-7.726562-3.460938-7.726562-7.726563s3.457031-7.726562 7.726562-7.726562h20.351562c4.265626 0 7.726563 3.460937 7.726563 7.726562s-3.460937 7.726563-7.726563 7.726563zm0 0"/></g><path d="m297.945312 331.914062v-222.042968h-52.1875v222.042968s36.074219 16.738282 36.074219 69.976563c0 29.601563-17.308593 55.234375-42.335937 67.3125 9.792968 4.726563 20.769531 7.375 32.351562 7.375 41.183594 0 74.691406-33.503906 74.691406-74.6875 0-31.273437-19.4375-59.113281-48.59375-69.976563zm0 0" fill="#e5394b"/></svg>